<?xml version="1.0" encoding="utf-8"?>
<!-- Generator: Adobe Illustrator 26.4.0, SVG Export Plug-In . SVG Version: 6.00 Build 0)  -->
<svg version="1.1" id="Layer_1" xmlns="http://www.w3.org/2000/svg" xmlns:xlink="http://www.w3.org/1999/xlink" x="0px" y="0px"
	 viewBox="0 0 100 14" style="enable-background:new 0 0 100 14;" xml:space="preserve">
<style type="text/css">
	.st0{fill-rule:evenodd;clip-rule:evenodd;fill:#009639;}
	.st1{fill-rule:evenodd;clip-rule:evenodd;fill:#006341;}
</style>
<g id="Page-1">
	<g id="Footer---Desktop" transform="translate(-106.000000, -706.000000)">
		<g id="Footer" transform="translate(0.000000, 250.000000)">
			<g id="Disclaimer---logo---social" transform="translate(105.000000, 400.000000)">
				<g id="Combined-Shape" transform="translate(1.000000, 56.000000)">
					<g>
						<path id="path-1" class="st0" d="M76,0h-4.2v13.2h3.5v-8l5.3,8h4.2V0h-3.5v8L76,0z M65.7,0h-4.8L56,13.2h3.5l1-2.6h5.6l1,2.6
							h3.7L65.7,0z M90.8,0h-3.5v13.2h3.5v-6l4.7,6h4.4l-5.5-7.1L99.7,0h-4.4l-4.4,5.3V0z M4.2,0H0v13.2h3.5v-8l5.3,8h4.2V0H9.4v8
							L4.2,0z M50.6,0h-7.2v13.2h7.5l0,0c3.1,0,4.7-0.9,4.7-3.6c0-2.3-1.3-3.1-2.9-3.4c1.4-0.2,2.4-1.2,2.4-2.7
							C55.1,1,53.6,0,50.6,0z M35.1,0h-6.5v13.2h6.5l0,0c4.4,0,6.6-2,6.6-6.6C41.7,1.9,39.5,0,35.1,0z M26.1,0H15.5v13.2h10.6v-2.8
							H19V8h5.9V5.2H19V2.8h7.1V0z M50.2,8L50.2,8c1.1,0,1.5,0.6,1.5,1.3c0,0.7-0.2,1.2-1.5,1.2h-3.3V8H50.2z M34.9,2.8L34.9,2.8
							c1.7,0,3,0.8,3,3.8c0,3-1.3,3.8-3,3.8h-2.7V2.8H34.9z M63.3,3.4L65.1,8h-3.7l1.7-4.6H63.3z M49.8,2.8L49.8,2.8
							c1.2,0,1.5,0.5,1.5,1.2S51,5.2,49.8,5.2h-2.9V2.8H49.8z"/>
					</g>
					<g>
						<path id="path-1_00000051375498243819509990000007961680252841710526_" class="st1" d="M76,0h-4.2v13.2h3.5v-8l5.3,8h4.2V0
							h-3.5v8L76,0z M65.7,0h-4.8L56,13.2h3.5l1-2.6h5.6l1,2.6h3.7L65.7,0z M90.8,0h-3.5v13.2h3.5v-6l4.7,6h4.4l-5.5-7.1L99.7,0
							h-4.4l-4.4,5.3V0z M4.2,0H0v13.2h3.5v-8l5.3,8h4.2V0H9.4v8L4.2,0z M50.6,0h-7.2v13.2h7.5l0,0c3.1,0,4.7-0.9,4.7-3.6
							c0-2.3-1.3-3.1-2.9-3.4c1.4-0.2,2.4-1.2,2.4-2.7C55.1,1,53.6,0,50.6,0z M35.1,0h-6.5v13.2h6.5l0,0c4.4,0,6.6-2,6.6-6.6
							C41.7,1.9,39.5,0,35.1,0z M26.1,0H15.5v13.2h10.6v-2.8H19V8h5.9V5.2H19V2.8h7.1V0z M50.2,8L50.2,8c1.1,0,1.5,0.6,1.5,1.3
							c0,0.7-0.2,1.2-1.5,1.2h-3.3V8H50.2z M34.9,2.8L34.9,2.8c1.7,0,3,0.8,3,3.8c0,3-1.3,3.8-3,3.8h-2.7V2.8H34.9z M63.3,3.4
							L65.1,8h-3.7l1.7-4.6H63.3z M49.8,2.8L49.8,2.8c1.2,0,1.5,0.5,1.5,1.2S51,5.2,49.8,5.2h-2.9V2.8H49.8z"/>
					</g>
				</g>
			</g>
		</g>
	</g>
</g>
</svg>
