<?xml version="1.0" encoding="UTF-8"?>
<svg width="100px" height="14px" viewBox="0 0 100 14" version="1.1" xmlns="http://www.w3.org/2000/svg" xmlns:xlink="http://www.w3.org/1999/xlink">
    <title>35D5571D-6D78-47E7-9001-F563C7DEFBAD</title>
    <defs>
        <path d="M76.0071031,7.10542736e-14 L81.2781579,8.00959641 L81.2781579,7.10542736e-14 L84.753838,7.10542736e-14 L84.753838,13.2345156 L80.5833169,13.2345156 L75.3107868,5.28183232 L75.3107868,13.2345156 L71.8369508,13.2345156 L71.8369508,7.10542736e-14 L76.0071031,7.10542736e-14 Z M65.7234047,7.10542736e-14 L70.7252515,13.2345156 L67.0616976,13.2345156 L66.0721383,10.6216135 L60.4331678,10.6216135 L59.4436084,13.2345156 L55.955532,13.2345156 L60.8970353,7.10542736e-14 L65.7234047,7.10542736e-14 Z M90.8139871,7.10542736e-14 L90.8139871,5.33985413 L95.2616801,7.10542736e-14 L99.6545588,7.10542736e-14 L94.4534434,6.152529 L100,13.2345156 L95.5515711,13.2345156 L90.8139871,7.19766067 L90.8139871,13.2345156 L87.3478031,13.2345156 L87.3478031,7.10542736e-14 L90.8139871,7.10542736e-14 Z M4.17066332,7.10542736e-14 L9.44096572,8.00959641 L9.44096572,7.10542736e-14 L12.9168872,7.10542736e-14 L12.9168872,13.2345156 L8.74548641,13.2345156 L3.47518401,5.28183232 L3.47518401,13.2345156 L-3.37507799e-13,13.2345156 L-3.37507799e-13,7.10542736e-14 L4.17066332,7.10542736e-14 Z M50.578108,7.10542736e-14 C53.607606,7.10542736e-14 55.1227262,1.04405213 55.1227262,3.53979868 C55.1227262,5.04951653 54.0740538,6.09467738 52.6750817,6.26837809 C54.2503168,6.50158053 55.5320275,7.37119279 55.5320275,9.63521521 C55.5320275,12.305032 54.0161653,13.2345156 50.8686637,13.2345156 L50.8686637,13.2345156 L43.4092112,13.2345156 L43.4092112,7.10542736e-14 Z M35.1473693,7.10542736e-14 C39.5064299,7.10542736e-14 41.7151932,1.85711927 41.7151932,6.61651866 C41.7151932,11.2598712 39.5652661,13.2345156 35.1473693,13.2345156 L35.1473693,13.2345156 L28.6394918,13.2345156 L28.6394918,7.10542736e-14 Z M26.0984648,7.10542736e-14 L26.0984648,2.78549411 L19.0015345,2.78549411 L19.0015345,5.16593296 L24.9350275,5.16593296 L24.9350275,7.9525358 L19.0015345,7.9525358 L19.0015345,10.4471736 L26.0984648,10.4471736 L26.0984648,13.2345156 L15.5108523,13.2345156 L15.5108523,7.10542736e-14 L26.0984648,7.10542736e-14 Z M50.2285505,7.9525358 L46.9058992,7.9525358 L46.9058992,10.4471736 L50.2285505,10.4471736 C51.4516306,10.4471736 51.6846689,9.92533235 51.6846689,9.22831206 C51.6846689,8.53203093 51.3343693,7.9525358 50.2285505,7.9525358 L50.2285505,7.9525358 Z M34.8568887,2.78549411 L32.1256301,2.78549411 L32.1256301,10.4471736 L34.8568887,10.4471736 C36.5424167,10.4471736 37.879368,9.63521521 37.879368,6.61651866 C37.879368,3.59819168 36.5424167,2.78549411 34.8568887,2.78549411 L34.8568887,2.78549411 Z M63.3396513,3.36683712 L63.1663951,3.36683712 L61.4205059,7.9525358 L65.0848002,7.9525358 L63.3396513,3.36683712 Z M49.8199913,2.78549411 L46.9058992,2.78549411 L46.9058992,5.16593296 L49.8199913,5.16593296 C51.0445557,5.16593296 51.2772229,4.70063681 51.2772229,4.00435567 C51.2772229,3.30807454 51.0445557,2.78549411 49.8199913,2.78549411 L49.8199913,2.78549411 Z" id="path-1"></path>
    </defs>
    <g id="Page-1" stroke="none" stroke-width="1" fill="none" fill-rule="evenodd">
        <g id="Footer---Desktop" transform="translate(-106.000000, -706.000000)">
            <g id="Footer" transform="translate(0.000000, 250.000000)">
                <g id="Disclaimer---logo---social" transform="translate(105.000000, 400.000000)">
                    <g id="Combined-Shape" transform="translate(1.000000, 56.000000)">
                        <use fill="#009639" xlink:href="#path-1"></use>
                        <use fill="#006341" xlink:href="#path-1"></use>
                    </g>
                </g>
            </g>
        </g>
    </g>
</svg>